<?xml version="1.0" encoding="utf-8"?>
<!-- Generator: Adobe Illustrator 16.0.0, SVG Export Plug-In . SVG Version: 6.00 Build 0)  -->
<!DOCTYPE svg PUBLIC "-//W3C//DTD SVG 1.1//EN" "http://www.w3.org/Graphics/SVG/1.1/DTD/svg11.dtd">
<svg version="1.1" id="Layer_1" xmlns="http://www.w3.org/2000/svg" xmlns:xlink="http://www.w3.org/1999/xlink" x="0px" y="0px"
	 width="768px" height="117px" viewBox="0 0 768 117" enable-background="new 0 0 768 117" xml:space="preserve">
<path fill="#DBE8F6" stroke="#DBE8F6" stroke-width="1.51" d="M55-47l82,3h38L55-47z"/>
<path fill="#7088B8" stroke="#7088B8" stroke-width="1.51" d="M176,161l-38,5l84-8L176,161z"/>
<path fill="#D2E4F3" stroke="#D2E4F3" stroke-width="1.51" d="M55-47l120,3l161-4L55-47z"/>
<path fill="#6D85B3" stroke="#6D85B3" stroke-width="1.51" d="M138,166l-116,3l370-1L138,166z"/>
<path fill="#6283B2" stroke="#6283B2" stroke-width="1.51" d="M222,158l-84,8l254,2L222,158z"/>
<path fill="#C6DFEE" stroke="#C6DFEE" stroke-width="1.51" d="M55-47l281-1l84-4L55-47z"/>
<path fill="#587CAC" stroke="#587CAC" stroke-width="1.51" d="M392,168l-370,1l435,1L392,168z"/>
<path fill="#A2C5E3" stroke="#A2C5E3" stroke-width="1.51" d="M420-52l49,6l63,1L420-52z"/>
<path fill="#95B3DA" stroke="#95B3DA" stroke-width="1.51" d="M532-45l56,4l42-2L532-45z"/>
<path fill="#92AED8" stroke="#92AED8" stroke-width="1.51" d="M532-45l98,2l70-6L532-45z"/>
<path fill="#9ABADD" stroke="#9ABADD" stroke-width="1.51" d="M420-52l112,7l168-4L420-52z"/>
<path fill="#1B5A9C" stroke="#1B5A9C" stroke-width="1.51" d="M583,161l-126,9l283-4L583,161z"/>
<path fill="#125398" stroke="#125398" stroke-width="1.51" d="M666,156l-83,5l157,5L666,156z"/>
<path fill="#93ACD6" stroke="#93ACD6" stroke-width="1.51" d="M420-52l280,3l92-3H420z"/>
<path fill="#7F8DB7" stroke="#7F8DB7" stroke-width="1.51" d="M792-52l25,46l14-40L792-52z"/>
<path fill="#4573A7" stroke="#4573A7" stroke-width="1.51" d="M788,43l25,37l22-40L788,43z"/>
<path fill="#6881AF" stroke="#6881AF" stroke-width="1.51" d="M817-6l-27,8l45,38L817-6z"/>
<path fill="#5D7FAE" stroke="#5D7FAE" stroke-width="1.51" d="M790,2l-2,41l47-3L790,2z"/>
<path fill="#30659E" stroke="#30659E" stroke-width="1.51" d="M813,80l13,42l9-82L813,80z"/>
<path fill="#7183B0" stroke="#7183B0" stroke-width="1.51" d="M831-46L817-6l18,46L831-46z"/>
<path fill="#8A9BC8" stroke="#8A9BC8" stroke-width="1.51" d="M700-49l39,11l53-14L700-49z"/>
<path fill="#1F5B9A" stroke="#1F5B9A" stroke-width="1.51" d="M813,80l-30,40l43,2L813,80z"/>
<path fill="#3D70A8" stroke="#3D70A8" stroke-width="1.51" d="M788,43l-1,32l26,5L788,43z"/>
<path fill="#114E92" stroke="#114E92" stroke-width="1.51" d="M783,120l33,33l10-31L783,120z"/>
<path fill="#2965A1" stroke="#2965A1" stroke-width="1.51" d="M787,75l-4,45l30-40L787,75z"/>
<path fill="#0B498F" stroke="#0B498F" stroke-width="1.51" d="M783,120v42l33-9L783,120z"/>
<path fill="#798BB7" stroke="#798BB7" stroke-width="1.51" d="M792-52l-2,54l27-8L792-52z"/>
<path fill="#8FA8D3" stroke="#8FA8D3" stroke-width="1.51" d="M630-43l24,2l46-8L630-43z"/>
<path fill="#2968A6" stroke="#2968A6" stroke-width="1.51" d="M748,80l35,40l4-45L748,80z"/>
<path fill="#3D74AD" stroke="#3D74AD" stroke-width="1.51" d="M748,80l39-5l1-32L748,80z"/>
<path fill="#4A7BB3" stroke="#4A7BB3" stroke-width="1.51" d="M754,32l-6,48l40-37L754,32z"/>
<path fill="#7990C0" stroke="#7990C0" stroke-width="1.51" d="M739-38l11,43l40-3L739-38z"/>
<path fill="#6184B4" stroke="#6184B4" stroke-width="1.51" d="M754,32l34,11l2-41L754,32z"/>
<path fill="#6B89BA" stroke="#6B89BA" stroke-width="1.51" d="M750,5l4,27l36-30L750,5z"/>
<path fill="#8092BF" stroke="#8092BF" stroke-width="1.51" d="M739-38l51,40l2-54L739-38z"/>
<path fill="#105399" stroke="#105399" stroke-width="1.51" d="M738,122l45,40v-42L738,122z"/>
<path fill="#094C95" stroke="#094C95" stroke-width="1.51" d="M738,122l2,44l43-4L738,122z"/>
<path fill="#2062A5" stroke="#2062A5" stroke-width="1.51" d="M748,80l-10,42l45-2L748,80z"/>
<path fill="#567FB2" stroke="#567FB2" stroke-width="1.51" d="M315,156l-93,2l170,10L315,156z"/>
<path fill="#0A529D" stroke="#0A529D" stroke-width="1.51" d="M738,122l-24,26l26,18L738,122z"/>
<path fill="#407BB7" stroke="#407BB7" stroke-width="1.51" d="M714,45l-3,27l37,8L714,45z"/>
<path fill="#7D96C7" stroke="#7D96C7" stroke-width="1.51" d="M739-38l-46,28l57,15L739-38z"/>
<path fill="#628ABC" stroke="#628ABC" stroke-width="1.51" d="M750,5l-36,40l40-13L750,5z"/>
<path fill="#4B7FB8" stroke="#4B7FB8" stroke-width="1.51" d="M714,45l34,35l6-48L714,45z"/>
<path fill="#0C4F97" stroke="#0C4F97" stroke-width="1.51" d="M714,148l-48,8l74,10L714,148z"/>
<path fill="#2A6FAF" stroke="#2A6FAF" stroke-width="1.51" d="M711,72l27,50l10-42L711,72z"/>
<path fill="#6E91C3" stroke="#6E91C3" stroke-width="1.51" d="M693-10l21,55l36-40L693-10z"/>
<path fill="#246BAE" stroke="#246BAE" stroke-width="1.51" d="M711,72l-19,44l46,6L711,72z"/>
<path fill="#869DCB" stroke="#869DCB" stroke-width="1.51" d="M700-49l-7,39l46-28L700-49z"/>
<path fill="#145DA5" stroke="#145DA5" stroke-width="1.51" d="M692,116l22,32l24-26L692,116z"/>
<path fill="#2765A4" stroke="#2765A4" stroke-width="1.51" d="M537,154l-80,16l126-9L537,154z"/>
<path fill="#165CA2" stroke="#165CA2" stroke-width="1.51" d="M619,149l-36,12l83-5L619,149z"/>
<path fill="#3077B6" stroke="#3077B6" stroke-width="1.51" d="M658,73l34,43l19-44L658,73z"/>
<path fill="#4380BB" stroke="#4380BB" stroke-width="1.51" d="M658,73l53-1l3-27L658,73z"/>
<path fill="#5089C0" stroke="#5089C0" stroke-width="1.51" d="M659,36l-1,37l56-28L659,36z"/>
<path fill="#6992C4" stroke="#6992C4" stroke-width="1.51" d="M693-10l-34,46l55,9L693-10z"/>
<path fill="#125AA3" stroke="#125AA3" stroke-width="1.51" d="M692,116l-26,40l48-8L692,116z"/>
<path fill="#2973B4" stroke="#2973B4" stroke-width="1.51" d="M658,73v39l34,4L658,73z"/>
<path fill="#84A1CE" stroke="#84A1CE" stroke-width="1.51" d="M654-41l4,28l35,3L654-41z"/>
<path fill="#779ACB" stroke="#779ACB" stroke-width="1.51" d="M658-13l1,49l34-46L658-13z"/>
<path fill="#89A2CE" stroke="#89A2CE" stroke-width="1.51" d="M654-41l39,31l7-39L654-41z"/>
<path fill="#1964AA" stroke="#1964AA" stroke-width="1.51" d="M658,112l8,44l26-40L658,112z"/>
<path fill="#7B9FCF" stroke="#7B9FCF" stroke-width="1.51" d="M621-13l12,45l25-45H621z"/>
<path fill="#4A8BC3" stroke="#4A8BC3" stroke-width="1.51" d="M633,32l-7,40l32,1L633,32z"/>
<path fill="#347EBB" stroke="#347EBB" stroke-width="1.51" d="M658,73l-32-1l32,40V73z"/>
<path fill="#1E6BB1" stroke="#1E6BB1" stroke-width="1.51" d="M620,113l-1,36l39-37L620,113z"/>
<path fill="#568FC4" stroke="#568FC4" stroke-width="1.51" d="M633,32l25,41l1-37L633,32z"/>
<path fill="#6F9ACA" stroke="#6F9ACA" stroke-width="1.51" d="M658-13l-25,45l26,4L658-13z"/>
<path fill="#1761A9" stroke="#1761A9" stroke-width="1.51" d="M658,112l-39,37l47,7L658,112z"/>
<path fill="#8BA7D3" stroke="#8BA7D3" stroke-width="1.51" d="M654-41l-24-2l28,30L654-41z"/>
<path fill="#87A6D3" stroke="#87A6D3" stroke-width="1.51" d="M630-43l-9,30h37L630-43z"/>
<path fill="#2C78B8" stroke="#2C78B8" stroke-width="1.51" d="M626,72l-6,41l38-1L626,72z"/>
<path fill="#7DA5D2" stroke="#7DA5D2" stroke-width="1.51" d="M591-13l-8,50l38-50H591z"/>
<path fill="#3482BE" stroke="#3482BE" stroke-width="1.51" d="M587,78l33,35l6-41L587,78z"/>
<path fill="#5894C8" stroke="#5894C8" stroke-width="1.51" d="M583,37l43,35l7-40L583,37z"/>
<path fill="#719FCE" stroke="#719FCE" stroke-width="1.51" d="M621-13l-38,50l50-5L621-13z"/>
<path fill="#4A8FC6" stroke="#4A8FC6" stroke-width="1.51" d="M583,37l4,41l39-6L583,37z"/>
<path fill="#8DACD6" stroke="#8DACD6" stroke-width="1.51" d="M588-41l33,28l9-30L588-41z"/>
<path fill="#206EB2" stroke="#206EB2" stroke-width="1.51" d="M586,115l33,34l1-36L586,115z"/>
<path fill="#2E7CBB" stroke="#2E7CBB" stroke-width="1.51" d="M587,78l-1,37l34-2L587,78z"/>
<path fill="#8AABD6" stroke="#8AABD6" stroke-width="1.51" d="M588-41l3,28h30L588-41z"/>
<path fill="#1D67AD" stroke="#1D67AD" stroke-width="1.51" d="M586,115l-3,46l36-12L586,115z"/>
<path fill="#256CAF" stroke="#256CAF" stroke-width="1.51" d="M543,114l-6,40l46,7L543,114z"/>
<path fill="#2671B3" stroke="#2671B3" stroke-width="1.51" d="M543,114l40,47l3-46L543,114z"/>
<path fill="#4E94C8" stroke="#4E94C8" stroke-width="1.51" d="M583,37l-50,34l54,7L583,37z"/>
<path fill="#3280BD" stroke="#3280BD" stroke-width="1.51" d="M543,114l43,1l1-37L543,114z"/>
<path fill="#90B4DA" stroke="#90B4DA" stroke-width="1.51" d="M532-45l9,49l47-45L532-45z"/>
<path fill="#8AAED7" stroke="#8AAED7" stroke-width="1.51" d="M588-41L541,4l50-17L588-41z"/>
<path fill="#7CA8D3" stroke="#7CA8D3" stroke-width="1.51" d="M541,4l42,33l8-50L541,4z"/>
<path fill="#2C6BA9" stroke="#2C6BA9" stroke-width="1.51" d="M494,151l-37,19l80-16L494,151z"/>
<path fill="#5E9ECC" stroke="#5E9ECC" stroke-width="1.51" d="M539,33l-6,38l50-34L539,33z"/>
<path fill="#72A6D1" stroke="#72A6D1" stroke-width="1.51" d="M541,4l-2,29l44,4L541,4z"/>
<path fill="#3C8AC2" stroke="#3C8AC2" stroke-width="1.51" d="M533,71l10,43l44-36L533,71z"/>
<path fill="#C4DDED" stroke="#C4DDED" stroke-width="1.51" d="M175-44l120,5l41-9L175-44z"/>
<path fill="#9BBFE0" stroke="#9BBFE0" stroke-width="1.51" d="M469-46l41,13l22-12L469-46z"/>
<path fill="#63A2CF" stroke="#63A2CF" stroke-width="1.51" d="M493,32l40,39l6-38L493,32z"/>
<path fill="#92B7DC" stroke="#92B7DC" stroke-width="1.51" d="M532-45l-22,12l31,37L532-45z"/>
<path fill="#8EB6DB" stroke="#8EB6DB" stroke-width="1.51" d="M510-33l-16,23l47,14L510-33z"/>
<path fill="#76ABD3" stroke="#76ABD3" stroke-width="1.51" d="M493,32l46,1l2-29L493,32z"/>
<path fill="#3F8DC4" stroke="#3F8DC4" stroke-width="1.51" d="M533,71l-32,14l42,29L533,71z"/>
<path fill="#3885C0" stroke="#3885C0" stroke-width="1.51" d="M501,85l-6,37l48-8L501,85z"/>
<path fill="#2D77B6" stroke="#2D77B6" stroke-width="1.51" d="M495,122l42,32l6-40L495,122z"/>
<path fill="#2C72B3" stroke="#2C72B3" stroke-width="1.51" d="M495,122l-1,29l43,3L495,122z"/>
<path fill="#82B1D7" stroke="#82B1D7" stroke-width="1.51" d="M494-10l-1,42l48-28L494-10z"/>
<path fill="#C8DFEF" stroke="#C8DFEF" stroke-width="1.51" d="M175-44l48,8l72-3L175-44z"/>
<path fill="#7A8CB8" stroke="#7A8CB8" stroke-width="1.51" d="M71,164l-49,5l116-3L71,164z"/>
<path fill="#549CCD" stroke="#549CCD" stroke-width="1.51" d="M493,32l8,53l32-14L493,32z"/>
<path fill="#58A0CE" stroke="#58A0CE" stroke-width="1.51" d="M493,32l-33,36l41,17L493,32z"/>
<path fill="#98BEDF" stroke="#98BEDF" stroke-width="1.51" d="M469-46l25,36l16-23L469-46z"/>
<path fill="#7FB3D8" stroke="#7FB3D8" stroke-width="1.51" d="M465,28l28,4l1-42L465,28z"/>
<path fill="#89B7DB" stroke="#89B7DB" stroke-width="1.51" d="M455,1l10,27l29-38L455,1z"/>
<path fill="#3A86C1" stroke="#3A86C1" stroke-width="1.51" d="M459,128l36-6l6-37L459,128z"/>
<path fill="#4592C6" stroke="#4592C6" stroke-width="1.51" d="M460,68l-1,60l42-43L460,68z"/>
<path fill="#6BAAD3" stroke="#6BAAD3" stroke-width="1.51" d="M465,28l-5,40l33-36L465,28z"/>
<path fill="#96BDDF" stroke="#96BDDF" stroke-width="1.51" d="M469-46L455,1l39-11L469-46z"/>
<path fill="#347BB8" stroke="#347BB8" stroke-width="1.51" d="M459,128l35,23l1-29L459,128z"/>
<path fill="#3374B2" stroke="#3374B2" stroke-width="1.51" d="M459,128l-2,42l37-19L459,128z"/>
<path fill="#4790C6" stroke="#4790C6" stroke-width="1.51" d="M431,79l-7,29l35,20L431,79z"/>
<path fill="#4A96C9" stroke="#4A96C9" stroke-width="1.51" d="M431,79l28,49l1-60L431,79z"/>
<path fill="#6CABD4" stroke="#6CABD4" stroke-width="1.51" d="M420,43l40,25l5-40L420,43z"/>
<path fill="#9FC4E2" stroke="#9FC4E2" stroke-width="1.51" d="M420-52l35,53l14-47L420-52z"/>
<path fill="#3976B3" stroke="#3976B3" stroke-width="1.51" d="M413,152l44,18l2-42L413,152z"/>
<path fill="#88B9DB" stroke="#88B9DB" stroke-width="1.51" d="M455,1l-34,7l44,20L455,1z"/>
<path fill="#80B6D9" stroke="#80B6D9" stroke-width="1.51" d="M421,8l-1,35l45-15L421,8z"/>
<path fill="#99C1E1" stroke="#99C1E1" stroke-width="1.51" d="M420-52l1,60l34-7L420-52z"/>
<path fill="#3B71A9" stroke="#3B71A9" stroke-width="1.51" d="M413,152l-21,16l65,2L413,152z"/>
<path fill="#5FA5D1" stroke="#5FA5D1" stroke-width="1.51" d="M420,43l11,36l29-11L420,43z"/>
<path fill="#4083BD" stroke="#4083BD" stroke-width="1.51" d="M424,108l-11,44l46-24L424,108z"/>
<path fill="#C2DDED" stroke="#C2DDED" stroke-width="1.51" d="M223-36l30,2l42-5L223-36z"/>
<path fill="#AFD1E9" stroke="#AFD1E9" stroke-width="1.51" d="M336-48l46,11l38-15L336-48z"/>
<path fill="#9EC5E3" stroke="#9EC5E3" stroke-width="1.51" d="M420-52l-29,39l30,21L420-52z"/>
<path fill="#4586BF" stroke="#4586BF" stroke-width="1.51" d="M392,129l21,23l11-44L392,129z"/>
<path fill="#68ABD5" stroke="#68ABD5" stroke-width="1.51" d="M420,43l-34,5l45,31L420,43z"/>
<path fill="#65A9D3" stroke="#65A9D3" stroke-width="1.51" d="M386,48l-11,23l56,8L386,48z"/>
<path fill="#559ECD" stroke="#559ECD" stroke-width="1.51" d="M375,71l49,37l7-29L375,71z"/>
<path fill="#A7CBE6" stroke="#A7CBE6" stroke-width="1.51" d="M382-37l9,24l29-39L382-37z"/>
<path fill="#7EB7D9" stroke="#7EB7D9" stroke-width="1.51" d="M386,48l34-5l1-35L386,48z"/>
<path fill="#5096C9" stroke="#5096C9" stroke-width="1.51" d="M375,71l17,58l32-21L375,71z"/>
<path fill="#4C7CB2" stroke="#4C7CB2" stroke-width="1.51" d="M344,151l-29,5l77,12L344,151z"/>
<path fill="#8DBEDE" stroke="#8DBEDE" stroke-width="1.51" d="M391-13l-5,61l35-40L391-13z"/>
<path fill="#5599CB" stroke="#5599CB" stroke-width="1.51" d="M375,71l-21,36l38,22L375,71z"/>
<path fill="#427BB7" stroke="#427BB7" stroke-width="1.51" d="M392,129v39l21-16L392,129z"/>
<path fill="#8BBFDD" stroke="#8BBFDD" stroke-width="1.51" d="M343,37l43,11l5-61L343,37z"/>
<path fill="#9DC6E3" stroke="#9DC6E3" stroke-width="1.51" d="M339-13l4,50l48-50H339z"/>
<path fill="#477EB9" stroke="#477EB9" stroke-width="1.51" d="M344,151l48,17v-39L344,151z"/>
<path fill="#4F8BC2" stroke="#4F8BC2" stroke-width="1.51" d="M354,107l-10,44l48-22L354,107z"/>
<path fill="#A6CBE6" stroke="#A6CBE6" stroke-width="1.51" d="M382-37l-43,24h52L382-37z"/>
<path fill="#75B3D8" stroke="#75B3D8" stroke-width="1.51" d="M343,37l32,34l11-23L343,37z"/>
<path fill="#6088BA" stroke="#6088BA" stroke-width="1.51" d="M274,147l-52,11l93-2L274,147z"/>
<path fill="#5FA3D0" stroke="#5FA3D0" stroke-width="1.51" d="M340,89l14,18l21-36L340,89z"/>
<path fill="#AED1E8" stroke="#AED1E8" stroke-width="1.51" d="M336-48l3,35l43-24L336-48z"/>
<path fill="#6EAED6" stroke="#6EAED6" stroke-width="1.51" d="M343,37l-3,52l35-18L343,37z"/>
<path fill="#9EC8E3" stroke="#9EC8E3" stroke-width="1.51" d="M339-13L313,4l30,33L339-13z"/>
<path fill="#75B2D7" stroke="#75B2D7" stroke-width="1.51" d="M298,68l42,21l3-52L298,68z"/>
<path fill="#568EC4" stroke="#568EC4" stroke-width="1.51" d="M313,127l31,24l10-44L313,127z"/>
<path fill="#5D9BCB" stroke="#5D9BCB" stroke-width="1.51" d="M340,89l-27,38l41-20L340,89z"/>
<path fill="#B5D4E9" stroke="#B5D4E9" stroke-width="1.51" d="M336-48l-41,9l44,26L336-48z"/>
<path fill="#82BADB" stroke="#82BADB" stroke-width="1.51" d="M297,49l1,19l45-31L297,49z"/>
<path fill="#5687BD" stroke="#5687BD" stroke-width="1.51" d="M313,127l2,29l29-5L313,127z"/>
<path fill="#93C3DE" stroke="#93C3DE" stroke-width="1.51" d="M313,4l-16,45l46-12L313,4z"/>
<path fill="#AFD1E8" stroke="#AFD1E8" stroke-width="1.51" d="M295-39l18,43l26-17L295-39z"/>
<path fill="#67A4D0" stroke="#67A4D0" stroke-width="1.51" d="M298,68l15,59l27-38L298,68z"/>
<path fill="#71ACD3" stroke="#71ACD3" stroke-width="1.51" d="M269,82l6,36l23-50L269,82z"/>
<path fill="#A1CAE3" stroke="#A1CAE3" stroke-width="1.51" d="M270-3l27,52l16-45L270-3z"/>
<path fill="#B2D2E8" stroke="#B2D2E8" stroke-width="1.51" d="M295-39L270-3l43,7L295-39z"/>
<path fill="#68A1CE" stroke="#68A1CE" stroke-width="1.51" d="M298,68l-23,50l38,9L298,68z"/>
<path fill="#5C8ABF" stroke="#5C8ABF" stroke-width="1.51" d="M313,127l-39,20l41,9L313,127z"/>
<path fill="#A0CAE1" stroke="#A0CAE1" stroke-width="1.51" d="M270-3l-13,32l40,20L270-3z"/>
<path fill="#6293C5" stroke="#6293C5" stroke-width="1.51" d="M275,118l-1,29l39-20L275,118z"/>
<path fill="#BBD8EB" stroke="#BBD8EB" stroke-width="1.51" d="M253-34l17,31l25-36L253-34z"/>
<path fill="#7DB6D9" stroke="#7DB6D9" stroke-width="1.51" d="M297,49l-28,33l29-14L297,49z"/>
<path fill="#89BEDC" stroke="#89BEDC" stroke-width="1.51" d="M257,29l12,53l28-33L257,29z"/>
<path fill="#DDEAF7" stroke="#DDEAF7" stroke-width="1.51" d="M55-47l44,6l38-3L55-47z"/>
<path fill="#90C1DE" stroke="#90C1DE" stroke-width="1.51" d="M257,29l-34,10l46,43L257,29z"/>
<path fill="#6896C7" stroke="#6896C7" stroke-width="1.51" d="M235,125l39,22l1-29L235,125z"/>
<path fill="#6FA2CF" stroke="#6FA2CF" stroke-width="1.51" d="M269,82l-34,43l40-7L269,82z"/>
<path fill="#688FC2" stroke="#688FC2" stroke-width="1.51" d="M235,125l-13,33l52-11L235,125z"/>
<path fill="#78ABD4" stroke="#78ABD4" stroke-width="1.51" d="M212,79l23,46l34-43L212,79z"/>
<path fill="#88BADC" stroke="#88BADC" stroke-width="1.51" d="M223,39l-11,40l57,3L223,39z"/>
<path fill="#AFD0E6" stroke="#AFD0E6" stroke-width="1.51" d="M232,0l25,29l13-32L232,0z"/>
<path fill="#BAD7EA" stroke="#BAD7EA" stroke-width="1.51" d="M253-34L232,0l38-3L253-34z"/>
<path fill="#C1DBED" stroke="#C1DBED" stroke-width="1.51" d="M223-36l9,36l21-34L223-36z"/>
<path fill="#A8CEE5" stroke="#A8CEE5" stroke-width="1.51" d="M232,0l-9,39l34-10L232,0z"/>
<path fill="#7FAED6" stroke="#7FAED6" stroke-width="1.51" d="M190,89l-2,33l24-43L190,89z"/>
<path fill="#C1D9ED" stroke="#C1D9ED" stroke-width="1.51" d="M223-36L185-4l47,4L223-36z"/>
<path fill="#ACCFE6" stroke="#ACCFE6" stroke-width="1.51" d="M188,29l35,10l9-39L188,29z"/>
<path fill="#7096C7" stroke="#7096C7" stroke-width="1.51" d="M188,122l34,36l13-33L188,122z"/>
<path fill="#78A6D2" stroke="#78A6D2" stroke-width="1.51" d="M212,79l-24,43l47,3L212,79z"/>
<path fill="#B8D5E9" stroke="#B8D5E9" stroke-width="1.51" d="M185-4l3,33l44-29L185-4z"/>
<path fill="#7191C3" stroke="#7191C3" stroke-width="1.51" d="M188,122l-12,39l46-3L188,122z"/>
<path fill="#CADFF0" stroke="#CADFF0" stroke-width="1.51" d="M175-44l10,40l38-32L175-44z"/>
<path fill="#99C5E1" stroke="#99C5E1" stroke-width="1.51" d="M188,29l24,50l11-40L188,29z"/>
<path fill="#8FBEDE" stroke="#8FBEDE" stroke-width="1.51" d="M188,29l2,60l22-10L188,29z"/>
<path fill="#B5D3E8" stroke="#B5D3E8" stroke-width="1.51" d="M185-4l-30,36l33-3L185-4z"/>
<path fill="#799ACA" stroke="#799ACA" stroke-width="1.51" d="M135,121l41,40l12-39L135,121z"/>
<path fill="#83A9D5" stroke="#83A9D5" stroke-width="1.51" d="M142,87l-7,34l53,1L142,87z"/>
<path fill="#9DC6E3" stroke="#9DC6E3" stroke-width="1.51" d="M188,29l-33,3l35,57L188,29z"/>
<path fill="#93BFDF" stroke="#93BFDF" stroke-width="1.51" d="M155,32l-13,55l48,2L155,32z"/>
<path fill="#83AED7" stroke="#83AED7" stroke-width="1.51" d="M142,87l46,35l2-33L142,87z"/>
<path fill="#CADEF1" stroke="#CADEF1" stroke-width="1.51" d="M175-44L135,0l50-4L175-44z"/>
<path fill="#D2E3F3" stroke="#D2E3F3" stroke-width="1.51" d="M137-44l-2,44l40-44H137z"/>
<path fill="#BFD8EC" stroke="#BFD8EC" stroke-width="1.51" d="M135,0l20,32l30-36L135,0z"/>
<path fill="#7892C5" stroke="#7892C5" stroke-width="1.51" d="M135,121l3,45l38-5L135,121z"/>
<path fill="#A3C9E5" stroke="#A3C9E5" stroke-width="1.51" d="M107,33l35,54l13-55L107,33z"/>
<path fill="#B9D6EA" stroke="#B9D6EA" stroke-width="1.51" d="M135,0l-28,33l48-1L135,0z"/>
<path fill="#D0E2F3" stroke="#D0E2F3" stroke-width="1.51" d="M99-41L95-6l40,6L99-41z"/>
<path fill="#D4E4F4" stroke="#D4E4F4" stroke-width="1.51" d="M99-41l36,41l2-44L99-41z"/>
<path fill="#7A8FBD" stroke="#7A8FBD" stroke-width="1.51" d="M104,147l-33,17l67,2L104,147z"/>
<path fill="#7C97C8" stroke="#7C97C8" stroke-width="1.51" d="M135,121l-31,26l34,19L135,121z"/>
<path fill="#9AC3E2" stroke="#9AC3E2" stroke-width="1.51" d="M107,33L94,82l48,5L107,33z"/>
<path fill="#86ACD6" stroke="#86ACD6" stroke-width="1.51" d="M101,118l34,3l7-34L101,118z"/>
<path fill="#8DB4DA" stroke="#8DB4DA" stroke-width="1.51" d="M94,82l7,36l41-31L94,82z"/>
<path fill="#C4DBEE" stroke="#C4DBEE" stroke-width="1.51" d="M95-6l12,39l28-33L95-6z"/>
<path fill="#82A1CF" stroke="#82A1CF" stroke-width="1.51" d="M101,118l3,29l31-26L101,118z"/>
<path fill="#E5EFF9" stroke="#E5EFF9" stroke-width="1.51" d="M-24-44l59,3l20-6L-24-44z"/>
<path fill="#C5DCEE" stroke="#C5DCEE" stroke-width="1.51" d="M64,3l10,39L95-6L64,3z"/>
<path fill="#83A0CE" stroke="#83A0CE" stroke-width="1.51" d="M101,118l-27,11l30,18L101,118z"/>
<path fill="#BDD8EB" stroke="#BDD8EB" stroke-width="1.51" d="M95-6L74,42l33-9L95-6z"/>
<path fill="#A6CCE6" stroke="#A6CCE6" stroke-width="1.51" d="M74,42l20,40l13-49L74,42z"/>
<path fill="#8FB6DB" stroke="#8FB6DB" stroke-width="1.51" d="M94,82l-33,7l40,29L94,82z"/>
<path fill="#8BADD7" stroke="#8BADD7" stroke-width="1.51" d="M61,89l13,40l27-11L61,89z"/>
<path fill="#8098C9" stroke="#8098C9" stroke-width="1.51" d="M74,129l-3,35l33-17L74,129z"/>
<path fill="#D5E4F4" stroke="#D5E4F4" stroke-width="1.51" d="M55-47l9,50l31-9L55-47z"/>
<path fill="#DAE8F6" stroke="#DAE8F6" stroke-width="1.51" d="M55-47L95-6l4-35L55-47z"/>
<path fill="#9CC3E2" stroke="#9CC3E2" stroke-width="1.51" d="M74,42L61,89l33-7L74,42z"/>
<path fill="#A2C7E4" stroke="#A2C7E4" stroke-width="1.51" d="M34,32l-9,53l36,4L34,32z"/>
<path fill="#DBE9F6" stroke="#DBE9F6" stroke-width="1.51" d="M55-47l-20,6L64,3L55-47z"/>
<path fill="#BEDAEC" stroke="#BEDAEC" stroke-width="1.51" d="M64,3L34,32l40,10L64,3z"/>
<path fill="#A9CDE7" stroke="#A9CDE7" stroke-width="1.51" d="M34,32l27,57l13-47L34,32z"/>
<path fill="#8EB0D8" stroke="#8EB0D8" stroke-width="1.51" d="M61,89l-47,27l60,13L61,89z"/>
<path fill="#8196C4" stroke="#8196C4" stroke-width="1.51" d="M22,169l49-5l3-35L22,169z"/>
<path fill="#88A0CE" stroke="#88A0CE" stroke-width="1.51" d="M14,116l8,53l52-40L14,116z"/>
<path fill="#D8E7F5" stroke="#D8E7F5" stroke-width="1.51" d="M35-41L17-13L64,3L35-41z"/>
<path fill="#95B9DC" stroke="#95B9DC" stroke-width="1.51" d="M25,85l-11,31l47-27L25,85z"/>
<path fill="#CCE0F1" stroke="#CCE0F1" stroke-width="1.51" d="M17-13l17,45L64,3L17-13z"/>
<path fill="#D0E3F2" stroke="#D0E3F2" stroke-width="1.51" d="M17-13L-23-1l57,33L17-13z"/>
<path fill="#C5DEEE" stroke="#C5DEEE" stroke-width="1.51" d="M-23-1l8,49l49-16L-23-1z"/>
<path fill="#ADCFE8" stroke="#ADCFE8" stroke-width="1.51" d="M-15,48l40,37l9-53L-15,48z"/>
<path fill="#E2EDF8" stroke="#E2EDF8" stroke-width="1.51" d="M-24-44l41,31l18-28L-24-44z"/>
<path fill="#8BA3CF" stroke="#8BA3CF" stroke-width="1.51" d="M14,116l-35,11l43,42L14,116z"/>
<path fill="#8796C1" stroke="#8796C1" stroke-width="1.51" d="M-28,150l-17,13l67,6L-28,150z"/>
<path fill="#8A9DCB" stroke="#8A9DCB" stroke-width="1.51" d="M-21,127l-7,23l50,19L-21,127z"/>
<path fill="#9BBEDF" stroke="#9BBEDF" stroke-width="1.51" d="M-28,72l42,44l11-31L-28,72z"/>
<path fill="#A8CAE6" stroke="#A8CAE6" stroke-width="1.51" d="M-15,48l-13,24l53,13L-15,48z"/>
<path fill="#97B7DC" stroke="#97B7DC" stroke-width="1.51" d="M-28,72l7,55l35-11L-28,72z"/>
<path fill="#DFEBF7" stroke="#DFEBF7" stroke-width="1.51" d="M-24-44l1,43l40-12L-24-44z"/>
<path fill="#E5EFF9" stroke="#E5EFF9" stroke-width="1.51" d="M-24-44l-25,3l26,40L-24-44z"/>
<path fill="#9EBFE0" stroke="#9EBFE0" stroke-width="1.51" d="M-28,72l-23,11l30,44L-28,72z"/>
<path fill="#9AB7DC" stroke="#9AB7DC" stroke-width="1.51" d="M-51,83l-9,33l39,11L-51,83z"/>
<path fill="#B5D5EB" stroke="#B5D5EB" stroke-width="1.51" d="M-67,34l39,38l13-24L-67,34z"/>
<path fill="#C6DFEE" stroke="#C6DFEE" stroke-width="1.51" d="M-53,10l-14,24l52,14L-53,10z"/>
<path fill="#CCE2F0" stroke="#CCE2F0" stroke-width="1.51" d="M-23-1l-30,11l38,38L-23-1z"/>
<path fill="#DFEBF7" stroke="#DFEBF7" stroke-width="1.51" d="M-49-41l-4,51l30-11L-49-41z"/>
<path fill="#92A9D4" stroke="#92A9D4" stroke-width="1.51" d="M-60,116l32,34l7-23L-60,116z"/>
<path fill="#AFD0E9" stroke="#AFD0E9" stroke-width="1.51" d="M-67,34l16,49l23-11L-67,34z"/>
<path fill="#90A3CF" stroke="#90A3CF" stroke-width="1.51" d="M-60,116l15,47l17-13L-60,116z"/>
<path fill="#DBE9F6" stroke="#DBE9F6" stroke-width="1.51" d="M-67,34l14-24l4-51L-67,34z"/>
<path fill="#A8C9E5" stroke="#A8C9E5" stroke-width="1.51" d="M-67,34l7,82l9-33L-67,34z"/>
</svg>
