<svg xmlns="http://www.w3.org/2000/svg" width="768" height="117"><path fill="#DBE8F6" stroke="#DBE8F6" stroke-width="1.51" d="M55-47l82 3h38L55-47z"/><path fill="#7088B8" stroke="#7088B8" stroke-width="1.51" d="M176 161l-38 5 84-8-46 3z"/><path fill="#D2E4F3" stroke="#D2E4F3" stroke-width="1.51" d="M55-47l120 3 161-4-281 1z"/><path fill="#6D85B3" stroke="#6D85B3" stroke-width="1.51" d="M138 166l-116 3 370-1-254-2z"/><path fill="#6283B2" stroke="#6283B2" stroke-width="1.51" d="M222 158l-84 8 254 2-170-10z"/><path fill="#C6DFEE" stroke="#C6DFEE" stroke-width="1.51" d="M55-47l281-1 84-4-365 5z"/><path fill="#587CAC" stroke="#587CAC" stroke-width="1.51" d="M392 168l-370 1 435 1-65-2z"/><path fill="#A2C5E3" stroke="#A2C5E3" stroke-width="1.51" d="M420-52l49 6 63 1-112-7z"/><path fill="#95B3DA" stroke="#95B3DA" stroke-width="1.51" d="M532-45l56 4 42-2-98-2z"/><path fill="#92AED8" stroke="#92AED8" stroke-width="1.51" d="M532-45l98 2 70-6-168 4z"/><path fill="#9ABADD" stroke="#9ABADD" stroke-width="1.51" d="M420-52l112 7 168-4-280-3z"/><path fill="#1B5A9C" stroke="#1B5A9C" stroke-width="1.51" d="M583 161l-126 9 283-4-157-5z"/><path fill="#125398" stroke="#125398" stroke-width="1.51" d="M666 156l-83 5 157 5-74-10z"/><path fill="#93ACD6" stroke="#93ACD6" stroke-width="1.51" d="M420-52l280 3 92-3H420z"/><path fill="#7F8DB7" stroke="#7F8DB7" stroke-width="1.51" d="M792-52l25 46 14-40-39-6z"/><path fill="#4573A7" stroke="#4573A7" stroke-width="1.51" d="M788 43l25 37 22-40-47 3z"/><path fill="#6881AF" stroke="#6881AF" stroke-width="1.51" d="M817-6l-27 8 45 38-18-46z"/><path fill="#5D7FAE" stroke="#5D7FAE" stroke-width="1.51" d="M790 2l-2 41 47-3-45-38z"/><path fill="#30659E" stroke="#30659E" stroke-width="1.51" d="M813 80l13 42 9-82-22 40z"/><path fill="#7183B0" stroke="#7183B0" stroke-width="1.51" d="M831-46L817-6l18 46-4-86z"/><path fill="#8A9BC8" stroke="#8A9BC8" stroke-width="1.51" d="M700-49l39 11 53-14-92 3z"/><path fill="#1F5B9A" stroke="#1F5B9A" stroke-width="1.51" d="M813 80l-30 40 43 2-13-42z"/><path fill="#3D70A8" stroke="#3D70A8" stroke-width="1.51" d="M788 43l-1 32 26 5-25-37z"/><path fill="#114E92" stroke="#114E92" stroke-width="1.51" d="M783 120l33 33 10-31-43-2z"/><path fill="#2965A1" stroke="#2965A1" stroke-width="1.51" d="M787 75l-4 45 30-40-26-5z"/><path fill="#0B498F" stroke="#0B498F" stroke-width="1.51" d="M783 120v42l33-9-33-33z"/><path fill="#798BB7" stroke="#798BB7" stroke-width="1.51" d="M792-52l-2 54 27-8-25-46z"/><path fill="#8FA8D3" stroke="#8FA8D3" stroke-width="1.51" d="M630-43l24 2 46-8-70 6z"/><path fill="#2968A6" stroke="#2968A6" stroke-width="1.51" d="M748 80l35 40 4-45-39 5z"/><path fill="#3D74AD" stroke="#3D74AD" stroke-width="1.51" d="M748 80l39-5 1-32-40 37z"/><path fill="#4A7BB3" stroke="#4A7BB3" stroke-width="1.51" d="M754 32l-6 48 40-37-34-11z"/><path fill="#7990C0" stroke="#7990C0" stroke-width="1.51" d="M739-38l11 43 40-3-51-40z"/><path fill="#6184B4" stroke="#6184B4" stroke-width="1.51" d="M754 32l34 11 2-41-36 30z"/><path fill="#6B89BA" stroke="#6B89BA" stroke-width="1.51" d="M750 5l4 27 36-30-40 3z"/><path fill="#8092BF" stroke="#8092BF" stroke-width="1.51" d="M739-38l51 40 2-54-53 14z"/><path fill="#105399" stroke="#105399" stroke-width="1.51" d="M738 122l45 40v-42l-45 2z"/><path fill="#094C95" stroke="#094C95" stroke-width="1.51" d="M738 122l2 44 43-4-45-40z"/><path fill="#2062A5" stroke="#2062A5" stroke-width="1.51" d="M748 80l-10 42 45-2-35-40z"/><path fill="#567FB2" stroke="#567FB2" stroke-width="1.51" d="M315 156l-93 2 170 10-77-12z"/><path fill="#0A529D" stroke="#0A529D" stroke-width="1.51" d="M738 122l-24 26 26 18-2-44z"/><path fill="#407BB7" stroke="#407BB7" stroke-width="1.51" d="M714 45l-3 27 37 8-34-35z"/><path fill="#7D96C7" stroke="#7D96C7" stroke-width="1.51" d="M739-38l-46 28 57 15-11-43z"/><path fill="#628ABC" stroke="#628ABC" stroke-width="1.51" d="M750 5l-36 40 40-13-4-27z"/><path fill="#4B7FB8" stroke="#4B7FB8" stroke-width="1.51" d="M714 45l34 35 6-48-40 13z"/><path fill="#0C4F97" stroke="#0C4F97" stroke-width="1.51" d="M714 148l-48 8 74 10-26-18z"/><path fill="#2A6FAF" stroke="#2A6FAF" stroke-width="1.51" d="M711 72l27 50 10-42-37-8z"/><path fill="#6E91C3" stroke="#6E91C3" stroke-width="1.51" d="M693-10l21 55 36-40-57-15z"/><path fill="#246BAE" stroke="#246BAE" stroke-width="1.51" d="M711 72l-19 44 46 6-27-50z"/><path fill="#869DCB" stroke="#869DCB" stroke-width="1.51" d="M700-49l-7 39 46-28-39-11z"/><path fill="#145DA5" stroke="#145DA5" stroke-width="1.51" d="M692 116l22 32 24-26-46-6z"/><path fill="#2765A4" stroke="#2765A4" stroke-width="1.51" d="M537 154l-80 16 126-9-46-7z"/><path fill="#165CA2" stroke="#165CA2" stroke-width="1.51" d="M619 149l-36 12 83-5-47-7z"/><path fill="#3077B6" stroke="#3077B6" stroke-width="1.51" d="M658 73l34 43 19-44-53 1z"/><path fill="#4380BB" stroke="#4380BB" stroke-width="1.51" d="M658 73l53-1 3-27-56 28z"/><path fill="#5089C0" stroke="#5089C0" stroke-width="1.51" d="M659 36l-1 37 56-28-55-9z"/><path fill="#6992C4" stroke="#6992C4" stroke-width="1.51" d="M693-10l-34 46 55 9-21-55z"/><path fill="#125AA3" stroke="#125AA3" stroke-width="1.51" d="M692 116l-26 40 48-8-22-32z"/><path fill="#2973B4" stroke="#2973B4" stroke-width="1.51" d="M658 73v39l34 4-34-43z"/><path fill="#84A1CE" stroke="#84A1CE" stroke-width="1.51" d="M654-41l4 28 35 3-39-31z"/><path fill="#779ACB" stroke="#779ACB" stroke-width="1.51" d="M658-13l1 49 34-46-35-3z"/><path fill="#89A2CE" stroke="#89A2CE" stroke-width="1.51" d="M654-41l39 31 7-39-46 8z"/><path fill="#1964AA" stroke="#1964AA" stroke-width="1.51" d="M658 112l8 44 26-40-34-4z"/><path fill="#7B9FCF" stroke="#7B9FCF" stroke-width="1.51" d="M621-13l12 45 25-45h-37z"/><path fill="#4A8BC3" stroke="#4A8BC3" stroke-width="1.51" d="M633 32l-7 40 32 1-25-41z"/><path fill="#347EBB" stroke="#347EBB" stroke-width="1.51" d="M658 73l-32-1 32 40V73z"/><path fill="#1E6BB1" stroke="#1E6BB1" stroke-width="1.51" d="M620 113l-1 36 39-37-38 1z"/><path fill="#568FC4" stroke="#568FC4" stroke-width="1.51" d="M633 32l25 41 1-37-26-4z"/><path fill="#6F9ACA" stroke="#6F9ACA" stroke-width="1.51" d="M658-13l-25 45 26 4-1-49z"/><path fill="#1761A9" stroke="#1761A9" stroke-width="1.51" d="M658 112l-39 37 47 7-8-44z"/><path fill="#8BA7D3" stroke="#8BA7D3" stroke-width="1.51" d="M654-41l-24-2 28 30-4-28z"/><path fill="#87A6D3" stroke="#87A6D3" stroke-width="1.51" d="M630-43l-9 30h37l-28-30z"/><path fill="#2C78B8" stroke="#2C78B8" stroke-width="1.51" d="M626 72l-6 41 38-1-32-40z"/><path fill="#7DA5D2" stroke="#7DA5D2" stroke-width="1.51" d="M591-13l-8 50 38-50h-30z"/><path fill="#3482BE" stroke="#3482BE" stroke-width="1.51" d="M587 78l33 35 6-41-39 6z"/><path fill="#5894C8" stroke="#5894C8" stroke-width="1.51" d="M583 37l43 35 7-40-50 5z"/><path fill="#719FCE" stroke="#719FCE" stroke-width="1.51" d="M621-13l-38 50 50-5-12-45z"/><path fill="#4A8FC6" stroke="#4A8FC6" stroke-width="1.51" d="M583 37l4 41 39-6-43-35z"/><path fill="#8DACD6" stroke="#8DACD6" stroke-width="1.51" d="M588-41l33 28 9-30-42 2z"/><path fill="#206EB2" stroke="#206EB2" stroke-width="1.51" d="M586 115l33 34 1-36-34 2z"/><path fill="#2E7CBB" stroke="#2E7CBB" stroke-width="1.51" d="M587 78l-1 37 34-2-33-35z"/><path fill="#8AABD6" stroke="#8AABD6" stroke-width="1.51" d="M588-41l3 28h30l-33-28z"/><path fill="#1D67AD" stroke="#1D67AD" stroke-width="1.51" d="M586 115l-3 46 36-12-33-34z"/><path fill="#256CAF" stroke="#256CAF" stroke-width="1.51" d="M543 114l-6 40 46 7-40-47z"/><path fill="#2671B3" stroke="#2671B3" stroke-width="1.51" d="M543 114l40 47 3-46-43-1z"/><path fill="#4E94C8" stroke="#4E94C8" stroke-width="1.51" d="M583 37l-50 34 54 7-4-41z"/><path fill="#3280BD" stroke="#3280BD" stroke-width="1.51" d="M543 114l43 1 1-37-44 36z"/><path fill="#90B4DA" stroke="#90B4DA" stroke-width="1.51" d="M532-45l9 49 47-45-56-4z"/><path fill="#8AAED7" stroke="#8AAED7" stroke-width="1.51" d="M588-41L541 4l50-17-3-28z"/><path fill="#7CA8D3" stroke="#7CA8D3" stroke-width="1.51" d="M541 4l42 33 8-50-50 17z"/><path fill="#2C6BA9" stroke="#2C6BA9" stroke-width="1.51" d="M494 151l-37 19 80-16-43-3z"/><path fill="#5E9ECC" stroke="#5E9ECC" stroke-width="1.51" d="M539 33l-6 38 50-34-44-4z"/><path fill="#72A6D1" stroke="#72A6D1" stroke-width="1.51" d="M541 4l-2 29 44 4-42-33z"/><path fill="#3C8AC2" stroke="#3C8AC2" stroke-width="1.51" d="M533 71l10 43 44-36-54-7z"/><path fill="#C4DDED" stroke="#C4DDED" stroke-width="1.51" d="M175-44l120 5 41-9-161 4z"/><path fill="#9BBFE0" stroke="#9BBFE0" stroke-width="1.51" d="M469-46l41 13 22-12-63-1z"/><path fill="#63A2CF" stroke="#63A2CF" stroke-width="1.51" d="M493 32l40 39 6-38-46-1z"/><path fill="#92B7DC" stroke="#92B7DC" stroke-width="1.51" d="M532-45l-22 12 31 37-9-49z"/><path fill="#8EB6DB" stroke="#8EB6DB" stroke-width="1.51" d="M510-33l-16 23 47 14-31-37z"/><path fill="#76ABD3" stroke="#76ABD3" stroke-width="1.51" d="M493 32l46 1 2-29-48 28z"/><path fill="#3F8DC4" stroke="#3F8DC4" stroke-width="1.51" d="M533 71l-32 14 42 29-10-43z"/><path fill="#3885C0" stroke="#3885C0" stroke-width="1.51" d="M501 85l-6 37 48-8-42-29z"/><path fill="#2D77B6" stroke="#2D77B6" stroke-width="1.51" d="M495 122l42 32 6-40-48 8z"/><path fill="#2C72B3" stroke="#2C72B3" stroke-width="1.51" d="M495 122l-1 29 43 3-42-32z"/><path fill="#82B1D7" stroke="#82B1D7" stroke-width="1.51" d="M494-10l-1 42 48-28-47-14z"/><path fill="#C8DFEF" stroke="#C8DFEF" stroke-width="1.51" d="M175-44l48 8 72-3-120-5z"/><path fill="#7A8CB8" stroke="#7A8CB8" stroke-width="1.51" d="M71 164l-49 5 116-3-67-2z"/><path fill="#549CCD" stroke="#549CCD" stroke-width="1.51" d="M493 32l8 53 32-14-40-39z"/><path fill="#58A0CE" stroke="#58A0CE" stroke-width="1.51" d="M493 32l-33 36 41 17-8-53z"/><path fill="#98BEDF" stroke="#98BEDF" stroke-width="1.51" d="M469-46l25 36 16-23-41-13z"/><path fill="#7FB3D8" stroke="#7FB3D8" stroke-width="1.51" d="M465 28l28 4 1-42-29 38z"/><path fill="#89B7DB" stroke="#89B7DB" stroke-width="1.51" d="M455 1l10 27 29-38-39 11z"/><path fill="#3A86C1" stroke="#3A86C1" stroke-width="1.51" d="M459 128l36-6 6-37-42 43z"/><path fill="#4592C6" stroke="#4592C6" stroke-width="1.51" d="M460 68l-1 60 42-43-41-17z"/><path fill="#6BAAD3" stroke="#6BAAD3" stroke-width="1.51" d="M465 28l-5 40 33-36-28-4z"/><path fill="#96BDDF" stroke="#96BDDF" stroke-width="1.51" d="M469-46L455 1l39-11-25-36z"/><path fill="#347BB8" stroke="#347BB8" stroke-width="1.51" d="M459 128l35 23 1-29-36 6z"/><path fill="#3374B2" stroke="#3374B2" stroke-width="1.51" d="M459 128l-2 42 37-19-35-23z"/><path fill="#4790C6" stroke="#4790C6" stroke-width="1.51" d="M431 79l-7 29 35 20-28-49z"/><path fill="#4A96C9" stroke="#4A96C9" stroke-width="1.51" d="M431 79l28 49 1-60-29 11z"/><path fill="#6CABD4" stroke="#6CABD4" stroke-width="1.51" d="M420 43l40 25 5-40-45 15z"/><path fill="#9FC4E2" stroke="#9FC4E2" stroke-width="1.51" d="M420-52l35 53 14-47-49-6z"/><path fill="#3976B3" stroke="#3976B3" stroke-width="1.51" d="M413 152l44 18 2-42-46 24z"/><path fill="#88B9DB" stroke="#88B9DB" stroke-width="1.51" d="M455 1l-34 7 44 20-10-27z"/><path fill="#80B6D9" stroke="#80B6D9" stroke-width="1.51" d="M421 8l-1 35 45-15-44-20z"/><path fill="#99C1E1" stroke="#99C1E1" stroke-width="1.51" d="M420-52l1 60 34-7-35-53z"/><path fill="#3B71A9" stroke="#3B71A9" stroke-width="1.51" d="M413 152l-21 16 65 2-44-18z"/><path fill="#5FA5D1" stroke="#5FA5D1" stroke-width="1.51" d="M420 43l11 36 29-11-40-25z"/><path fill="#4083BD" stroke="#4083BD" stroke-width="1.51" d="M424 108l-11 44 46-24-35-20z"/><path fill="#C2DDED" stroke="#C2DDED" stroke-width="1.51" d="M223-36l30 2 42-5-72 3z"/><path fill="#AFD1E9" stroke="#AFD1E9" stroke-width="1.51" d="M336-48l46 11 38-15-84 4z"/><path fill="#9EC5E3" stroke="#9EC5E3" stroke-width="1.51" d="M420-52l-29 39 30 21-1-60z"/><path fill="#4586BF" stroke="#4586BF" stroke-width="1.51" d="M392 129l21 23 11-44-32 21z"/><path fill="#68ABD5" stroke="#68ABD5" stroke-width="1.51" d="M420 43l-34 5 45 31-11-36z"/><path fill="#65A9D3" stroke="#65A9D3" stroke-width="1.51" d="M386 48l-11 23 56 8-45-31z"/><path fill="#559ECD" stroke="#559ECD" stroke-width="1.51" d="M375 71l49 37 7-29-56-8z"/><path fill="#A7CBE6" stroke="#A7CBE6" stroke-width="1.51" d="M382-37l9 24 29-39-38 15z"/><path fill="#7EB7D9" stroke="#7EB7D9" stroke-width="1.51" d="M386 48l34-5 1-35-35 40z"/><path fill="#5096C9" stroke="#5096C9" stroke-width="1.51" d="M375 71l17 58 32-21-49-37z"/><path fill="#4C7CB2" stroke="#4C7CB2" stroke-width="1.51" d="M344 151l-29 5 77 12-48-17z"/><path fill="#8DBEDE" stroke="#8DBEDE" stroke-width="1.51" d="M391-13l-5 61 35-40-30-21z"/><path fill="#5599CB" stroke="#5599CB" stroke-width="1.51" d="M375 71l-21 36 38 22-17-58z"/><path fill="#427BB7" stroke="#427BB7" stroke-width="1.51" d="M392 129v39l21-16-21-23z"/><path fill="#8BBFDD" stroke="#8BBFDD" stroke-width="1.51" d="M343 37l43 11 5-61-48 50z"/><path fill="#9DC6E3" stroke="#9DC6E3" stroke-width="1.51" d="M339-13l4 50 48-50h-52z"/><path fill="#477EB9" stroke="#477EB9" stroke-width="1.51" d="M344 151l48 17v-39l-48 22z"/><path fill="#4F8BC2" stroke="#4F8BC2" stroke-width="1.51" d="M354 107l-10 44 48-22-38-22z"/><path fill="#A6CBE6" stroke="#A6CBE6" stroke-width="1.51" d="M382-37l-43 24h52l-9-24z"/><path fill="#75B3D8" stroke="#75B3D8" stroke-width="1.51" d="M343 37l32 34 11-23-43-11z"/><path fill="#6088BA" stroke="#6088BA" stroke-width="1.51" d="M274 147l-52 11 93-2-41-9z"/><path fill="#5FA3D0" stroke="#5FA3D0" stroke-width="1.51" d="M340 89l14 18 21-36-35 18z"/><path fill="#AED1E8" stroke="#AED1E8" stroke-width="1.51" d="M336-48l3 35 43-24-46-11z"/><path fill="#6EAED6" stroke="#6EAED6" stroke-width="1.51" d="M343 37l-3 52 35-18-32-34z"/><path fill="#9EC8E3" stroke="#9EC8E3" stroke-width="1.51" d="M339-13L313 4l30 33-4-50z"/><path fill="#75B2D7" stroke="#75B2D7" stroke-width="1.51" d="M298 68l42 21 3-52-45 31z"/><path fill="#568EC4" stroke="#568EC4" stroke-width="1.51" d="M313 127l31 24 10-44-41 20z"/><path fill="#5D9BCB" stroke="#5D9BCB" stroke-width="1.51" d="M340 89l-27 38 41-20-14-18z"/><path fill="#B5D4E9" stroke="#B5D4E9" stroke-width="1.51" d="M336-48l-41 9 44 26-3-35z"/><path fill="#82BADB" stroke="#82BADB" stroke-width="1.51" d="M297 49l1 19 45-31-46 12z"/><path fill="#5687BD" stroke="#5687BD" stroke-width="1.51" d="M313 127l2 29 29-5-31-24z"/><path fill="#93C3DE" stroke="#93C3DE" stroke-width="1.51" d="M313 4l-16 45 46-12-30-33z"/><path fill="#AFD1E8" stroke="#AFD1E8" stroke-width="1.51" d="M295-39l18 43 26-17-44-26z"/><path fill="#67A4D0" stroke="#67A4D0" stroke-width="1.51" d="M298 68l15 59 27-38-42-21z"/><path fill="#71ACD3" stroke="#71ACD3" stroke-width="1.51" d="M269 82l6 36 23-50-29 14z"/><path fill="#A1CAE3" stroke="#A1CAE3" stroke-width="1.51" d="M270-3l27 52 16-45-43-7z"/><path fill="#B2D2E8" stroke="#B2D2E8" stroke-width="1.51" d="M295-39L270-3l43 7-18-43z"/><path fill="#68A1CE" stroke="#68A1CE" stroke-width="1.51" d="M298 68l-23 50 38 9-15-59z"/><path fill="#5C8ABF" stroke="#5C8ABF" stroke-width="1.51" d="M313 127l-39 20 41 9-2-29z"/><path fill="#A0CAE1" stroke="#A0CAE1" stroke-width="1.51" d="M270-3l-13 32 40 20-27-52z"/><path fill="#6293C5" stroke="#6293C5" stroke-width="1.51" d="M275 118l-1 29 39-20-38-9z"/><path fill="#BBD8EB" stroke="#BBD8EB" stroke-width="1.51" d="M253-34l17 31 25-36-42 5z"/><path fill="#7DB6D9" stroke="#7DB6D9" stroke-width="1.51" d="M297 49l-28 33 29-14-1-19z"/><path fill="#89BEDC" stroke="#89BEDC" stroke-width="1.51" d="M257 29l12 53 28-33-40-20z"/><path fill="#DDEAF7" stroke="#DDEAF7" stroke-width="1.51" d="M55-47l44 6 38-3-82-3z"/><path fill="#90C1DE" stroke="#90C1DE" stroke-width="1.51" d="M257 29l-34 10 46 43-12-53z"/><path fill="#6896C7" stroke="#6896C7" stroke-width="1.51" d="M235 125l39 22 1-29-40 7z"/><path fill="#6FA2CF" stroke="#6FA2CF" stroke-width="1.51" d="M269 82l-34 43 40-7-6-36z"/><path fill="#688FC2" stroke="#688FC2" stroke-width="1.51" d="M235 125l-13 33 52-11-39-22z"/><path fill="#78ABD4" stroke="#78ABD4" stroke-width="1.51" d="M212 79l23 46 34-43-57-3z"/><path fill="#88BADC" stroke="#88BADC" stroke-width="1.51" d="M223 39l-11 40 57 3-46-43z"/><path fill="#AFD0E6" stroke="#AFD0E6" stroke-width="1.51" d="M232 0l25 29 13-32-38 3z"/><path fill="#BAD7EA" stroke="#BAD7EA" stroke-width="1.51" d="M253-34L232 0l38-3-17-31z"/><path fill="#C1DBED" stroke="#C1DBED" stroke-width="1.51" d="M223-36l9 36 21-34-30-2z"/><path fill="#A8CEE5" stroke="#A8CEE5" stroke-width="1.51" d="M232 0l-9 39 34-10-25-29z"/><path fill="#7FAED6" stroke="#7FAED6" stroke-width="1.51" d="M190 89l-2 33 24-43-22 10z"/><path fill="#C1D9ED" stroke="#C1D9ED" stroke-width="1.51" d="M223-36L185-4l47 4-9-36z"/><path fill="#ACCFE6" stroke="#ACCFE6" stroke-width="1.51" d="M188 29l35 10 9-39-44 29z"/><path fill="#7096C7" stroke="#7096C7" stroke-width="1.51" d="M188 122l34 36 13-33-47-3z"/><path fill="#78A6D2" stroke="#78A6D2" stroke-width="1.51" d="M212 79l-24 43 47 3-23-46z"/><path fill="#B8D5E9" stroke="#B8D5E9" stroke-width="1.51" d="M185-4l3 33 44-29-47-4z"/><path fill="#7191C3" stroke="#7191C3" stroke-width="1.51" d="M188 122l-12 39 46-3-34-36z"/><path fill="#CADFF0" stroke="#CADFF0" stroke-width="1.51" d="M175-44l10 40 38-32-48-8z"/><path fill="#99C5E1" stroke="#99C5E1" stroke-width="1.51" d="M188 29l24 50 11-40-35-10z"/><path fill="#8FBEDE" stroke="#8FBEDE" stroke-width="1.51" d="M188 29l2 60 22-10-24-50z"/><path fill="#B5D3E8" stroke="#B5D3E8" stroke-width="1.51" d="M185-4l-30 36 33-3-3-33z"/><path fill="#799ACA" stroke="#799ACA" stroke-width="1.51" d="M135 121l41 40 12-39-53-1z"/><path fill="#83A9D5" stroke="#83A9D5" stroke-width="1.51" d="M142 87l-7 34 53 1-46-35z"/><path fill="#9DC6E3" stroke="#9DC6E3" stroke-width="1.51" d="M188 29l-33 3 35 57-2-60z"/><path fill="#93BFDF" stroke="#93BFDF" stroke-width="1.51" d="M155 32l-13 55 48 2-35-57z"/><path fill="#83AED7" stroke="#83AED7" stroke-width="1.51" d="M142 87l46 35 2-33-48-2z"/><path fill="#CADEF1" stroke="#CADEF1" stroke-width="1.51" d="M175-44L135 0l50-4-10-40z"/><path fill="#D2E3F3" stroke="#D2E3F3" stroke-width="1.51" d="M137-44l-2 44 40-44h-38z"/><path fill="#BFD8EC" stroke="#BFD8EC" stroke-width="1.51" d="M135 0l20 32 30-36-50 4z"/><path fill="#7892C5" stroke="#7892C5" stroke-width="1.51" d="M135 121l3 45 38-5-41-40z"/><path fill="#A3C9E5" stroke="#A3C9E5" stroke-width="1.51" d="M107 33l35 54 13-55-48 1z"/><path fill="#B9D6EA" stroke="#B9D6EA" stroke-width="1.51" d="M135 0l-28 33 48-1-20-32z"/><path fill="#D0E2F3" stroke="#D0E2F3" stroke-width="1.51" d="M99-41L95-6l40 6-36-41z"/><path fill="#D4E4F4" stroke="#D4E4F4" stroke-width="1.51" d="M99-41l36 41 2-44-38 3z"/><path fill="#7A8FBD" stroke="#7A8FBD" stroke-width="1.51" d="M104 147l-33 17 67 2-34-19z"/><path fill="#7C97C8" stroke="#7C97C8" stroke-width="1.51" d="M135 121l-31 26 34 19-3-45z"/><path fill="#9AC3E2" stroke="#9AC3E2" stroke-width="1.51" d="M107 33L94 82l48 5-35-54z"/><path fill="#86ACD6" stroke="#86ACD6" stroke-width="1.51" d="M101 118l34 3 7-34-41 31z"/><path fill="#8DB4DA" stroke="#8DB4DA" stroke-width="1.51" d="M94 82l7 36 41-31-48-5z"/><path fill="#C4DBEE" stroke="#C4DBEE" stroke-width="1.51" d="M95-6l12 39 28-33-40-6z"/><path fill="#82A1CF" stroke="#82A1CF" stroke-width="1.51" d="M101 118l3 29 31-26-34-3z"/><path fill="#E5EFF9" stroke="#E5EFF9" stroke-width="1.51" d="M-24-44l59 3 20-6-79 3z"/><path fill="#C5DCEE" stroke="#C5DCEE" stroke-width="1.51" d="M64 3l10 39L95-6 64 3z"/><path fill="#83A0CE" stroke="#83A0CE" stroke-width="1.51" d="M101 118l-27 11 30 18-3-29z"/><path fill="#BDD8EB" stroke="#BDD8EB" stroke-width="1.51" d="M95-6L74 42l33-9L95-6z"/><path fill="#A6CCE6" stroke="#A6CCE6" stroke-width="1.51" d="M74 42l20 40 13-49-33 9z"/><path fill="#8FB6DB" stroke="#8FB6DB" stroke-width="1.51" d="M94 82l-33 7 40 29-7-36z"/><path fill="#8BADD7" stroke="#8BADD7" stroke-width="1.51" d="M61 89l13 40 27-11-40-29z"/><path fill="#8098C9" stroke="#8098C9" stroke-width="1.51" d="M74 129l-3 35 33-17-30-18z"/><path fill="#D5E4F4" stroke="#D5E4F4" stroke-width="1.51" d="M55-47l9 50 31-9-40-41z"/><path fill="#DAE8F6" stroke="#DAE8F6" stroke-width="1.51" d="M55-47L95-6l4-35-44-6z"/><path fill="#9CC3E2" stroke="#9CC3E2" stroke-width="1.51" d="M74 42L61 89l33-7-20-40z"/><path fill="#A2C7E4" stroke="#A2C7E4" stroke-width="1.51" d="M34 32l-9 53 36 4-27-57z"/><path fill="#DBE9F6" stroke="#DBE9F6" stroke-width="1.51" d="M55-47l-20 6L64 3l-9-50z"/><path fill="#BEDAEC" stroke="#BEDAEC" stroke-width="1.51" d="M64 3L34 32l40 10L64 3z"/><path fill="#A9CDE7" stroke="#A9CDE7" stroke-width="1.51" d="M34 32l27 57 13-47-40-10z"/><path fill="#8EB0D8" stroke="#8EB0D8" stroke-width="1.51" d="M61 89l-47 27 60 13-13-40z"/><path fill="#8196C4" stroke="#8196C4" stroke-width="1.51" d="M22 169l49-5 3-35-52 40z"/><path fill="#88A0CE" stroke="#88A0CE" stroke-width="1.51" d="M14 116l8 53 52-40-60-13z"/><path fill="#D8E7F5" stroke="#D8E7F5" stroke-width="1.51" d="M35-41L17-13 64 3 35-41z"/><path fill="#95B9DC" stroke="#95B9DC" stroke-width="1.51" d="M25 85l-11 31 47-27-36-4z"/><path fill="#CCE0F1" stroke="#CCE0F1" stroke-width="1.51" d="M17-13l17 45L64 3 17-13z"/><path fill="#D0E3F2" stroke="#D0E3F2" stroke-width="1.51" d="M17-13L-23-1l57 33-17-45z"/><path fill="#C5DEEE" stroke="#C5DEEE" stroke-width="1.51" d="M-23-1l8 49 49-16-57-33z"/><path fill="#ADCFE8" stroke="#ADCFE8" stroke-width="1.51" d="M-15 48l40 37 9-53-49 16z"/><path fill="#E2EDF8" stroke="#E2EDF8" stroke-width="1.51" d="M-24-44l41 31 18-28-59-3z"/><path fill="#8BA3CF" stroke="#8BA3CF" stroke-width="1.51" d="M14 116l-35 11 43 42-8-53z"/><path fill="#8796C1" stroke="#8796C1" stroke-width="1.51" d="M-28 150l-17 13 67 6-50-19z"/><path fill="#8A9DCB" stroke="#8A9DCB" stroke-width="1.51" d="M-21 127l-7 23 50 19-43-42z"/><path fill="#9BBEDF" stroke="#9BBEDF" stroke-width="1.51" d="M-28 72l42 44 11-31-53-13z"/><path fill="#A8CAE6" stroke="#A8CAE6" stroke-width="1.51" d="M-15 48l-13 24 53 13-40-37z"/><path fill="#97B7DC" stroke="#97B7DC" stroke-width="1.51" d="M-28 72l7 55 35-11-42-44z"/><path fill="#DFEBF7" stroke="#DFEBF7" stroke-width="1.51" d="M-24-44l1 43 40-12-41-31z"/><path fill="#E5EFF9" stroke="#E5EFF9" stroke-width="1.51" d="M-24-44l-25 3 26 40-1-43z"/><path fill="#9EBFE0" stroke="#9EBFE0" stroke-width="1.51" d="M-28 72l-23 11 30 44-7-55z"/><path fill="#9AB7DC" stroke="#9AB7DC" stroke-width="1.51" d="M-51 83l-9 33 39 11-30-44z"/><path fill="#B5D5EB" stroke="#B5D5EB" stroke-width="1.51" d="M-67 34l39 38 13-24-52-14z"/><path fill="#C6DFEE" stroke="#C6DFEE" stroke-width="1.51" d="M-53 10l-14 24 52 14-38-38z"/><path fill="#CCE2F0" stroke="#CCE2F0" stroke-width="1.51" d="M-23-1l-30 11 38 38-8-49z"/><path fill="#DFEBF7" stroke="#DFEBF7" stroke-width="1.51" d="M-49-41l-4 51 30-11-26-40z"/><path fill="#92A9D4" stroke="#92A9D4" stroke-width="1.51" d="M-60 116l32 34 7-23-39-11z"/><path fill="#AFD0E9" stroke="#AFD0E9" stroke-width="1.51" d="M-67 34l16 49 23-11-39-38z"/><path fill="#90A3CF" stroke="#90A3CF" stroke-width="1.51" d="M-60 116l15 47 17-13-32-34z"/><path fill="#DBE9F6" stroke="#DBE9F6" stroke-width="1.51" d="M-67 34l14-24 4-51-18 75z"/><path fill="#A8C9E5" stroke="#A8C9E5" stroke-width="1.51" d="M-67 34l7 82 9-33-16-49z"/></svg>